<svg width="28" height="28" viewBox="0 0 28 28" fill="none" xmlns="http://www.w3.org/2000/svg">
<path d="M9.33333 7V6.06666C9.33333 4.00166 9.33333 2.33333 13.0667 2.33333H14.9333C18.6667 2.33333 18.6667 4.00166 18.6667 6.06666V7M9.33333 25.6667H18.6667C23.3567 25.6667 24.1967 23.7883 24.4417 21.5017L25.3167 12.1683C25.6317 9.32166 24.815 7 19.8333 7H8.16667C3.185 7 2.36833 9.32166 2.68333 12.1683L3.55833 21.5017C3.80333 23.7883 4.64333 25.6667 9.33333 25.6667Z" stroke="#FF4747" stroke-width="1.5" stroke-miterlimit="10" stroke-linecap="round" stroke-linejoin="round"/>
<path d="M16.3333 16.3567V15.1667C16.3333 14 16.3333 14 15.1667 14H12.8333C11.6667 14 11.6667 14 11.6667 15.1667V16.3683M16.3333 16.3567C16.3333 17.6283 16.3217 18.6667 14 18.6667C11.69 18.6667 11.6667 17.64 11.6667 16.3683M16.3333 16.3567C19.5582 15.9552 22.6288 14.743 25.2583 12.8333M11.6667 16.3683C8.645 16.03 5.68166 14.945 3.05666 13.1483" stroke="#FF4747" stroke-width="1.5" stroke-miterlimit="10" stroke-linecap="round" stroke-linejoin="round"/>
</svg>
