<svg width="105" height="20" viewBox="0 0 105 20" fill="none" xmlns="http://www.w3.org/2000/svg">
<rect width="104.824" height="20" rx="10" fill="#E5E6E6"/>
<path d="M15.7438 5.84779L16.6045 7.5693C16.7219 7.80894 17.0349 8.0388 17.299 8.08282L18.8591 8.34203C19.8568 8.50831 20.0916 9.23213 19.3727 9.94616L18.1598 11.159C17.9544 11.3645 17.8419 11.7606 17.9055 12.0443L18.2527 13.5457C18.5266 14.7341 17.8957 15.1938 16.8442 14.5727L15.3819 13.7071C15.1178 13.5506 14.6825 13.5506 14.4135 13.7071L12.9512 14.5727C11.9046 15.1938 11.2688 14.7292 11.5427 13.5457L11.89 12.0443C11.9535 11.7606 11.841 11.3645 11.6356 11.159L10.4228 9.94616C9.70872 9.23213 9.93858 8.50831 10.9363 8.34203L12.4964 8.08282C12.7556 8.0388 13.0686 7.80894 13.186 7.5693L14.0467 5.84779C14.5162 4.91367 15.2792 4.91367 15.7438 5.84779Z" fill="black"/>
<path d="M31.305 10.6164L30.9574 9.85162L34.6123 6.04774H35.6651L31.305 10.6164ZM30.7191 13V6.04774H31.5235V13H30.7191ZM34.7712 13L31.9208 9.46428L32.4671 8.92796L35.7942 13H34.7712ZM36.5331 13V8.0341H37.278L37.3277 8.94782V13H36.5331ZM40.0192 13V10.4575L40.8137 10.1595V13H40.0192ZM40.0192 10.4575C40.0192 9.96749 39.9629 9.59339 39.8504 9.33516C39.7378 9.07694 39.5822 8.90148 39.3836 8.80878C39.1849 8.70946 38.9598 8.6598 38.7082 8.6598C38.2712 8.6598 37.9302 8.8154 37.6852 9.1266C37.4469 9.43117 37.3277 9.86486 37.3277 10.4277H36.9403C36.9403 9.90459 37.0165 9.45435 37.1688 9.07694C37.3211 8.69953 37.5396 8.41151 37.8243 8.21287C38.1156 8.01423 38.4665 7.91492 38.877 7.91492C39.4796 7.91492 39.953 8.10031 40.2973 8.4711C40.6482 8.84188 40.8204 9.40469 40.8137 10.1595L40.0192 10.4575ZM44.2662 13.1192C43.7829 13.1192 43.3525 13.0099 42.9751 12.7914C42.6043 12.5663 42.3129 12.2584 42.1011 11.8678C41.8892 11.4771 41.7833 11.0269 41.7833 10.517C41.7833 10.0072 41.8859 9.55697 42.0911 9.16632C42.303 8.77567 42.5944 8.4711 42.9651 8.2526C43.3425 8.02748 43.7696 7.91492 44.2463 7.91492C44.7363 7.91492 45.1667 8.02748 45.5375 8.2526C45.9149 8.4711 46.2062 8.77567 46.4115 9.16632C46.6234 9.55697 46.7293 10.0072 46.7293 10.517C46.7293 11.0269 46.6234 11.4771 46.4115 11.8678C46.2062 12.2584 45.9182 12.5663 45.5474 12.7914C45.1766 13.0099 44.7496 13.1192 44.2662 13.1192ZM44.2662 12.3842C44.5973 12.3842 44.8853 12.3048 45.1303 12.1459C45.3753 11.987 45.5673 11.7685 45.7063 11.4904C45.852 11.2123 45.9248 10.8878 45.9248 10.517C45.9248 10.1463 45.852 9.82182 45.7063 9.54373C45.5673 9.26564 45.3719 9.04714 45.1203 8.88823C44.8687 8.72932 44.5774 8.64987 44.2463 8.64987C43.9219 8.64987 43.6339 8.72932 43.3823 8.88823C43.1373 9.04714 42.942 9.26564 42.7963 9.54373C42.6573 9.82182 42.5877 10.1463 42.5877 10.517C42.5877 10.8812 42.6573 11.2057 42.7963 11.4904C42.942 11.7685 43.1406 11.987 43.3922 12.1459C43.6504 12.3048 43.9418 12.3842 44.2662 12.3842ZM52.2154 13L53.8939 8.0341H54.6984L53.01 13H52.2154ZM48.8386 13L50.5171 8.0341H51.262L49.6034 13H48.8386ZM48.7989 13L47.1105 8.0341H47.915L49.5736 13H48.7989ZM52.2154 13L50.5568 8.0341H51.3117L52.9703 13H52.2154ZM55.4947 13V8.0341H56.2396L56.2893 8.94782V13H55.4947ZM58.9808 13V10.4575L59.7753 10.1595V13H58.9808ZM58.9808 10.4575C58.9808 9.96749 58.9245 9.59339 58.812 9.33516C58.6994 9.07694 58.5438 8.90148 58.3452 8.80878C58.1465 8.70946 57.9214 8.6598 57.6698 8.6598C57.2328 8.6598 56.8918 8.8154 56.6468 9.1266C56.4085 9.43117 56.2893 9.86486 56.2893 10.4277H55.9019C55.9019 9.90459 55.9781 9.45435 56.1304 9.07694C56.2827 8.69953 56.5012 8.41151 56.7859 8.21287C57.0772 8.01423 57.4281 7.91492 57.8386 7.91492C58.4412 7.91492 58.9146 8.10031 59.2589 8.4711C59.6098 8.84188 59.782 9.40469 59.7753 10.1595L58.9808 10.4575ZM65.2248 13.1192C64.8606 13.1192 64.5428 13.0662 64.2713 12.9603C63.9999 12.8477 63.7714 12.702 63.586 12.5233C63.4073 12.3445 63.2782 12.1492 63.1987 11.9373L63.8939 11.6493C64.0065 11.8744 64.1753 12.0565 64.4005 12.1955C64.6256 12.3346 64.8739 12.4041 65.1453 12.4041C65.4565 12.4041 65.7181 12.3445 65.93 12.2253C66.1418 12.0995 66.2478 11.9241 66.2478 11.6989C66.2478 11.4937 66.1683 11.3281 66.0094 11.2023C65.8571 11.0765 65.6287 10.9739 65.3241 10.8945L64.8474 10.7653C64.3971 10.6462 64.0462 10.4674 63.7946 10.229C63.543 9.98404 63.4172 9.70926 63.4172 9.40469C63.4172 8.93458 63.5695 8.57042 63.8741 8.31219C64.1853 8.04734 64.6454 7.91492 65.2546 7.91492C65.5459 7.91492 65.8108 7.95795 66.0491 8.04403C66.2875 8.13011 66.4928 8.2526 66.6649 8.41151C66.8371 8.56379 66.9629 8.74588 67.0423 8.95776L66.3471 9.26564C66.261 9.04052 66.1187 8.8783 65.92 8.77898C65.7214 8.67967 65.4797 8.63001 65.195 8.63001C64.8904 8.63001 64.6521 8.69622 64.4799 8.82864C64.3078 8.95445 64.2217 9.13322 64.2217 9.36496C64.2217 9.49738 64.2912 9.62319 64.4302 9.74237C64.5759 9.85493 64.7878 9.94763 65.0659 10.0205L65.5625 10.1496C65.8869 10.229 66.1584 10.3482 66.3769 10.5071C66.5954 10.6594 66.7609 10.8349 66.8735 11.0335C66.986 11.2321 67.0423 11.444 67.0423 11.6691C67.0423 11.9671 66.9629 12.2253 66.8039 12.4438C66.645 12.6623 66.4299 12.8312 66.1584 12.9503C65.8869 13.0629 65.5757 13.1192 65.2248 13.1192ZM68.1132 13V5.91862H68.9077V13H68.1132ZM71.6092 13V10.4575L72.4037 10.1595V13H71.6092ZM71.6092 10.4575C71.6092 9.96749 71.5496 9.59339 71.4304 9.33516C71.3178 9.07694 71.1622 8.90148 70.9636 8.80878C70.765 8.70946 70.5398 8.6598 70.2882 8.6598C69.8512 8.6598 69.5102 8.8154 69.2652 9.1266C69.0269 9.43117 68.9077 9.86486 68.9077 10.4277H68.5204C68.5204 9.90459 68.5965 9.45435 68.7488 9.07694C68.9011 8.69953 69.1229 8.41151 69.4142 8.21287C69.7056 8.01423 70.0565 7.91492 70.467 7.91492C71.0629 7.91492 71.5363 8.10031 71.8872 8.4711C72.2382 8.84188 72.4103 9.40469 72.4037 10.1595L71.6092 10.4575ZM73.701 13L73.7208 8.0341H74.5154L74.4955 13H73.701ZM74.1082 6.88201C73.9757 6.88201 73.8599 6.83235 73.7606 6.73303C73.6612 6.63371 73.6116 6.51784 73.6116 6.38542C73.6116 6.24637 73.6612 6.1305 73.7606 6.03781C73.8599 5.93849 73.9757 5.88883 74.1082 5.88883C74.2472 5.88883 74.3631 5.93849 74.4558 6.03781C74.5551 6.1305 74.6048 6.24637 74.6048 6.38542C74.6048 6.51784 74.5551 6.63371 74.4558 6.73303C74.3631 6.83235 74.2472 6.88201 74.1082 6.88201ZM76.0093 14.9864V8.0341H76.7542L76.8039 8.94782V14.9864H76.0093ZM78.4824 13.1192C78.0652 13.1192 77.6977 13.0099 77.3799 12.7914C77.0687 12.5729 76.8271 12.2684 76.6549 11.8777C76.4828 11.4804 76.3967 11.0269 76.3967 10.517C76.3967 10.0006 76.4828 9.54704 76.6549 9.15639C76.8271 8.76574 77.0687 8.46117 77.3799 8.24267C77.6977 8.02417 78.0652 7.91492 78.4824 7.91492C78.926 7.91492 79.3166 8.02417 79.6543 8.24267C79.992 8.46117 80.2535 8.76574 80.4389 9.15639C80.6309 9.54704 80.7269 10.0006 80.7269 10.517C80.7269 11.0269 80.6309 11.4804 80.4389 11.8777C80.2535 12.2684 79.992 12.5729 79.6543 12.7914C79.3166 13.0099 78.926 13.1192 78.4824 13.1192ZM78.3036 12.3942C78.6148 12.3942 78.8896 12.3147 79.1279 12.1558C79.3729 11.9969 79.5649 11.7751 79.704 11.4904C79.8496 11.2057 79.9225 10.8812 79.9225 10.517C79.9225 10.1529 79.8529 9.82844 79.7139 9.54373C79.5815 9.25902 79.3928 9.03721 79.1478 8.8783C78.9028 8.71939 78.6247 8.63994 78.3135 8.63994C78.0222 8.63994 77.7606 8.71939 77.5289 8.8783C77.3038 9.03721 77.125 9.25902 76.9926 9.54373C76.8668 9.82844 76.8039 10.1529 76.8039 10.517C76.8039 10.8812 76.8668 11.2057 76.9926 11.4904C77.125 11.7751 77.3038 11.9969 77.5289 12.1558C77.754 12.3147 78.0122 12.3942 78.3036 12.3942ZM81.8772 14.9864V8.0341H82.6221L82.6718 8.94782V14.9864H81.8772ZM84.3503 13.1192C83.9331 13.1192 83.5657 13.0099 83.2478 12.7914C82.9366 12.5729 82.695 12.2684 82.5228 11.8777C82.3507 11.4804 82.2646 11.0269 82.2646 10.517C82.2646 10.0006 82.3507 9.54704 82.5228 9.15639C82.695 8.76574 82.9366 8.46117 83.2478 8.24267C83.5657 8.02417 83.9331 7.91492 84.3503 7.91492C84.7939 7.91492 85.1845 8.02417 85.5222 8.24267C85.8599 8.46117 86.1214 8.76574 86.3068 9.15639C86.4988 9.54704 86.5949 10.0006 86.5949 10.517C86.5949 11.0269 86.4988 11.4804 86.3068 11.8777C86.1214 12.2684 85.8599 12.5729 85.5222 12.7914C85.1845 13.0099 84.7939 13.1192 84.3503 13.1192ZM84.1715 12.3942C84.4827 12.3942 84.7575 12.3147 84.9958 12.1558C85.2408 11.9969 85.4328 11.7751 85.5719 11.4904C85.7175 11.2057 85.7904 10.8812 85.7904 10.517C85.7904 10.1529 85.7209 9.82844 85.5818 9.54373C85.4494 9.25902 85.2607 9.03721 85.0157 8.8783C84.7707 8.71939 84.4926 8.63994 84.1814 8.63994C83.8901 8.63994 83.6286 8.71939 83.3968 8.8783C83.1717 9.03721 82.9929 9.25902 82.8605 9.54373C82.7347 9.82844 82.6718 10.1529 82.6718 10.517C82.6718 10.8812 82.7347 11.2057 82.8605 11.4904C82.9929 11.7751 83.1717 11.9969 83.3968 12.1558C83.6219 12.3147 83.8802 12.3942 84.1715 12.3942ZM89.8706 13.1192C89.3872 13.1192 88.9601 13.0099 88.5894 12.7914C88.2186 12.5663 87.9272 12.2584 87.7154 11.8678C87.5101 11.4771 87.4075 11.0269 87.4075 10.517C87.4075 10.0072 87.5101 9.55697 87.7154 9.16632C87.9272 8.77567 88.2153 8.4711 88.5794 8.2526C88.9502 8.02748 89.374 7.91492 89.8507 7.91492C90.3076 7.91492 90.7048 8.03079 91.0425 8.26253C91.3868 8.48765 91.6517 8.80547 91.8371 9.21598C92.0225 9.6265 92.1152 10.1098 92.1152 10.666H91.3206C91.3206 10.2423 91.2643 9.88141 91.1518 9.58346C91.0392 9.27888 90.8704 9.04383 90.6452 8.8783C90.4267 8.71277 90.1586 8.63001 89.8408 8.63001C89.5163 8.63001 89.2283 8.70946 88.9767 8.86837C88.7317 9.02066 88.543 9.23916 88.4106 9.52387C88.2782 9.80858 88.212 10.143 88.212 10.527C88.212 10.9044 88.2848 11.2321 88.4305 11.5102C88.5761 11.7817 88.7781 11.9969 89.0363 12.1558C89.2945 12.3081 89.5859 12.3842 89.9103 12.3842C90.2546 12.3842 90.5459 12.3015 90.7843 12.1359C91.0227 11.9704 91.2114 11.7552 91.3504 11.4904L92.0456 11.838C91.9198 12.0962 91.751 12.3213 91.5391 12.5133C91.3338 12.7054 91.0889 12.8543 90.8042 12.9603C90.5261 13.0662 90.2149 13.1192 89.8706 13.1192ZM87.9339 10.666L87.9438 9.98073H91.6285V10.666H87.9339ZM93.5543 10.3085C93.5543 9.77216 93.6569 9.33847 93.8621 9.00741C94.0674 8.66973 94.3289 8.42144 94.6468 8.26253C94.9712 8.097 95.3122 8.01423 95.6697 8.01423V8.75912C95.3784 8.75912 95.097 8.80878 94.8255 8.9081C94.5607 9.00079 94.3422 9.15639 94.17 9.37489C93.9979 9.59339 93.9118 9.89135 93.9118 10.2688L93.5543 10.3085ZM93.1173 13V8.0341H93.9118V13H93.1173Z" fill="black"/>
</svg>
