<svg width="80" height="15" viewBox="0 0 80 15" fill="none" xmlns="http://www.w3.org/2000/svg">
<path d="M7.33058 2.19585L8.43058 4.39585C8.58058 4.7021 8.98058 4.99585 9.31808 5.0521L11.3118 5.38335C12.5868 5.59585 12.8868 6.52085 11.9681 7.43335L10.4181 8.98335C10.1556 9.24585 10.0118 9.7521 10.0931 10.1146L10.5368 12.0333C10.8868 13.5521 10.0806 14.1396 8.73683 13.3458L6.86808 12.2396C6.53058 12.0396 5.97433 12.0396 5.63058 12.2396L3.76183 13.3458C2.42433 14.1396 1.61183 13.5458 1.96183 12.0333L2.40558 10.1146C2.48683 9.7521 2.34308 9.24585 2.08058 8.98335L0.530583 7.43335C-0.381917 6.52085 -0.088167 5.59585 1.18683 5.38335L3.18058 5.0521C3.51183 4.99585 3.91183 4.7021 4.06183 4.39585L5.16183 2.19585C5.76183 1.0021 6.73683 1.0021 7.33058 2.19585Z" fill="#9747FF"/>
<path d="M23.832 2.19585L24.932 4.39585C25.082 4.7021 25.482 4.99585 25.8195 5.0521L27.8133 5.38335C29.0883 5.59585 29.3883 6.52085 28.4695 7.43335L26.9195 8.98335C26.657 9.24585 26.5133 9.7521 26.5945 10.1146L27.0383 12.0333C27.3883 13.5521 26.582 14.1396 25.2383 13.3458L23.3695 12.2396C23.032 12.0396 22.4758 12.0396 22.132 12.2396L20.2633 13.3458C18.9258 14.1396 18.1133 13.5458 18.4633 12.0333L18.907 10.1146C18.9883 9.7521 18.8445 9.24585 18.582 8.98335L17.032 7.43335C16.1195 6.52085 16.4133 5.59585 17.6883 5.38335L19.682 5.0521C20.0133 4.99585 20.4133 4.7021 20.5633 4.39585L21.6633 2.19585C22.2633 1.0021 23.2383 1.0021 23.832 2.19585Z" fill="#9747FF"/>
<path d="M40.3333 2.19585L41.4333 4.39585C41.5833 4.7021 41.9833 4.99585 42.3208 5.0521L44.3145 5.38335C45.5895 5.59585 45.8895 6.52085 44.9708 7.43335L43.4208 8.98335C43.1583 9.24585 43.0145 9.7521 43.0958 10.1146L43.5395 12.0333C43.8895 13.5521 43.0833 14.1396 41.7395 13.3458L39.8708 12.2396C39.5333 12.0396 38.977 12.0396 38.6333 12.2396L36.7645 13.3458C35.427 14.1396 34.6145 13.5458 34.9645 12.0333L35.4083 10.1146C35.4895 9.7521 35.3458 9.24585 35.0833 8.98335L33.5333 7.43335C32.6208 6.52085 32.9145 5.59585 34.1895 5.38335L36.1833 5.0521C36.5145 4.99585 36.9145 4.7021 37.0645 4.39585L38.1645 2.19585C38.7645 1.0021 39.7395 1.0021 40.3333 2.19585Z" fill="#9747FF"/>
<path d="M56.8347 2.19585L57.9347 4.39585C58.0847 4.7021 58.4847 4.99585 58.8222 5.0521L60.816 5.38335C62.091 5.59585 62.391 6.52085 61.4722 7.43335L59.9222 8.98335C59.6597 9.24585 59.516 9.7521 59.5972 10.1146L60.041 12.0333C60.391 13.5521 59.5847 14.1396 58.241 13.3458L56.3722 12.2396C56.0347 12.0396 55.4785 12.0396 55.1347 12.2396L53.266 13.3458C51.9285 14.1396 51.116 13.5458 51.466 12.0333L51.9097 10.1146C51.991 9.7521 51.8472 9.24585 51.5847 8.98335L50.0347 7.43335C49.1222 6.52085 49.416 5.59585 50.691 5.38335L52.6847 5.0521C53.016 4.99585 53.416 4.7021 53.566 4.39585L54.666 2.19585C55.266 1.0021 56.241 1.0021 56.8347 2.19585Z" fill="#9747FF"/>
<path d="M73.3362 2.19585L74.4362 4.39585C74.5862 4.7021 74.9862 4.99585 75.3237 5.0521L77.3174 5.38335C78.5924 5.59585 78.8924 6.52085 77.9737 7.43335L76.4237 8.98335C76.1612 9.24585 76.0174 9.7521 76.0987 10.1146L76.5424 12.0333C76.8924 13.5521 76.0862 14.1396 74.7424 13.3459L72.8737 12.2396C72.5362 12.0396 71.9799 12.0396 71.6362 12.2396L69.7674 13.3459C68.4299 14.1396 67.6174 13.5459 67.9674 12.0333L68.4112 10.1146C68.4924 9.7521 68.3487 9.24585 68.0862 8.98335L66.5362 7.43335C65.6237 6.52085 65.9174 5.59585 67.1924 5.38335L69.1862 5.0521C69.5174 4.99585 69.9174 4.7021 70.0674 4.39585L71.1674 2.19585C71.7674 1.0021 72.7424 1.0021 73.3362 2.19585Z" stroke="#808080" stroke-linecap="round" stroke-linejoin="round"/>
</svg>
